<svg width="85" height="85" viewBox="0 0 85 85" fill="none" xmlns="http://www.w3.org/2000/svg">
<g filter="url(#filter0_d_9_130)">
<circle cx="41.5" cy="41.5" r="36.5" fill="black" fill-opacity="0.25" shape-rendering="crispEdges"/>
</g>
<path d="M41.4988 52.3878C39.8614 52.3878 38.4561 51.9735 37.2828 51.1449C36.1162 50.3097 35.218 49.1065 34.5882 47.5355C33.9651 45.9579 33.6536 44.0587 33.6536 41.8381C33.6602 39.6174 33.9751 37.7282 34.5982 36.1705C35.2279 34.6061 36.1261 33.4129 37.2928 32.5909C38.4661 31.7689 39.8681 31.358 41.4988 31.358C43.1294 31.358 44.5314 31.7689 45.7047 32.5909C46.878 33.4129 47.7762 34.6061 48.3993 36.1705C49.0291 37.7348 49.3439 39.6241 49.3439 41.8381C49.3439 44.0653 49.0291 45.9678 48.3993 47.5455C47.7762 49.1165 46.878 50.3163 45.7047 51.1449C44.5381 51.9735 43.1361 52.3878 41.4988 52.3878ZM41.4988 49.2756C42.7715 49.2756 43.7757 48.6491 44.5115 47.3963C45.254 46.1368 45.6252 44.2841 45.6252 41.8381C45.6252 40.2206 45.4561 38.8617 45.1181 37.7614C44.78 36.661 44.3027 35.8324 43.6863 35.2756C43.0698 34.7121 42.3406 34.4304 41.4988 34.4304C40.2327 34.4304 39.2317 35.0601 38.4959 36.3196C37.7601 37.5724 37.3889 39.4119 37.3823 41.8381C37.3757 43.4621 37.5381 44.8277 37.8695 45.9347C38.2076 47.0417 38.6848 47.8769 39.3013 48.4403C39.9178 48.9972 40.6503 49.2756 41.4988 49.2756Z" fill="white"/>
<defs>
<filter id="filter0_d_9_130" x="0" y="0" width="85" height="85" filterUnits="userSpaceOnUse" color-interpolation-filters="sRGB">
<feFlood flood-opacity="0" result="BackgroundImageFix"/>
<feColorMatrix in="SourceAlpha" type="matrix" values="0 0 0 0 0 0 0 0 0 0 0 0 0 0 0 0 0 0 127 0" result="hardAlpha"/>
<feMorphology radius="1" operator="dilate" in="SourceAlpha" result="effect1_dropShadow_9_130"/>
<feOffset dx="1" dy="1"/>
<feGaussianBlur stdDeviation="2.5"/>
<feComposite in2="hardAlpha" operator="out"/>
<feColorMatrix type="matrix" values="0 0 0 0 1 0 0 0 0 1 0 0 0 0 1 0 0 0 0.4 0"/>
<feBlend mode="normal" in2="BackgroundImageFix" result="effect1_dropShadow_9_130"/>
<feBlend mode="normal" in="SourceGraphic" in2="effect1_dropShadow_9_130" result="shape"/>
</filter>
</defs>
</svg>
