<svg width="85" height="85" viewBox="0 0 85 85" fill="none" xmlns="http://www.w3.org/2000/svg">
<g filter="url(#filter0_d_2_135)">
<circle cx="41.5" cy="41.5" r="36.5" fill="black" fill-opacity="0.25" shape-rendering="crispEdges"/>
</g>
<path d="M41.4988 52.2784C40.0669 52.2784 38.7942 52.0331 37.6806 51.5426C36.5736 51.0521 35.6986 50.3693 35.0556 49.4943C34.4126 48.6193 34.0712 47.6084 34.0314 46.4616H37.7701C37.8032 47.0118 37.9855 47.4924 38.3169 47.9034C38.6484 48.3078 39.0892 48.6226 39.6394 48.848C40.1896 49.0734 40.806 49.1861 41.4888 49.1861C42.218 49.1861 42.8643 49.0601 43.4277 48.8082C43.9912 48.5497 44.432 48.1918 44.7502 47.7344C45.0684 47.277 45.2241 46.75 45.2175 46.1534C45.2241 45.5369 45.065 44.9934 44.7402 44.5227C44.4154 44.0521 43.9448 43.6842 43.3283 43.419C42.7185 43.1539 41.9827 43.0213 41.1209 43.0213H39.3212V40.1776H41.1209C41.8302 40.1776 42.45 40.0549 42.9803 39.8097C43.5172 39.5644 43.9382 39.2197 44.2431 38.7756C44.548 38.3248 44.6971 37.8044 44.6905 37.2145C44.6971 36.6378 44.5679 36.1373 44.3027 35.7131C44.0442 35.2822 43.6763 34.9474 43.199 34.7088C42.7284 34.4702 42.1749 34.3508 41.5385 34.3508C40.9154 34.3508 40.3387 34.4635 39.8084 34.6889C39.2781 34.9143 38.8506 35.2358 38.5257 35.6534C38.2009 36.0644 38.0286 36.5549 38.0087 37.125H34.459C34.4855 35.9848 34.8136 34.9839 35.4434 34.1222C36.0797 33.2538 36.9282 32.5776 37.9888 32.0937C39.0494 31.6032 40.2393 31.358 41.5584 31.358C42.9173 31.358 44.0972 31.6132 45.0982 32.1236C46.1058 32.6274 46.8846 33.3068 47.4348 34.1619C47.985 35.017 48.2601 35.9616 48.2601 36.9957C48.2668 38.1425 47.9287 39.1037 47.2459 39.8793C46.5698 40.6548 45.6815 41.1619 44.5811 41.4006V41.5597C46.013 41.7585 47.11 42.2888 47.8723 43.1506C48.6413 44.0057 49.0224 45.0696 49.0158 46.3423C49.0158 47.4825 48.691 48.5033 48.0414 49.4048C47.3984 50.2997 46.5101 51.0024 45.3766 51.5128C44.2497 52.0232 42.9571 52.2784 41.4988 52.2784Z" fill="white"/>
<defs>
<filter id="filter0_d_2_135" x="0" y="0" width="85" height="85" filterUnits="userSpaceOnUse" color-interpolation-filters="sRGB">
<feFlood flood-opacity="0" result="BackgroundImageFix"/>
<feColorMatrix in="SourceAlpha" type="matrix" values="0 0 0 0 0 0 0 0 0 0 0 0 0 0 0 0 0 0 127 0" result="hardAlpha"/>
<feMorphology radius="1" operator="dilate" in="SourceAlpha" result="effect1_dropShadow_2_135"/>
<feOffset dx="1" dy="1"/>
<feGaussianBlur stdDeviation="2.5"/>
<feComposite in2="hardAlpha" operator="out"/>
<feColorMatrix type="matrix" values="0 0 0 0 1 0 0 0 0 1 0 0 0 0 1 0 0 0 0.4 0"/>
<feBlend mode="normal" in2="BackgroundImageFix" result="effect1_dropShadow_2_135"/>
<feBlend mode="normal" in="SourceGraphic" in2="effect1_dropShadow_2_135" result="shape"/>
</filter>
</defs>
</svg>
