<svg width="85" height="85" viewBox="0 0 85 85" fill="none" xmlns="http://www.w3.org/2000/svg">
<g filter="url(#filter0_d_2_151)">
<circle cx="41.5" cy="41.5" r="36.5" fill="black" fill-opacity="0.25" shape-rendering="crispEdges"/>
</g>
<path d="M41.5062 52.2188C40.903 52.2188 40.3859 52.0066 39.9551 51.5824C39.5242 51.1581 39.3121 50.6411 39.3187 50.0312C39.3121 49.4347 39.5242 48.9242 39.9551 48.5C40.3859 48.0758 40.903 47.8636 41.5062 47.8636C42.0895 47.8636 42.5967 48.0758 43.0275 48.5C43.465 48.9242 43.6871 49.4347 43.6937 50.0312C43.6871 50.4356 43.581 50.8035 43.3755 51.1349C43.1767 51.4664 42.9115 51.7315 42.5801 51.9304C42.2553 52.1226 41.8973 52.2188 41.5062 52.2188Z" fill="white"/>
<defs>
<filter id="filter0_d_2_151" x="0" y="0" width="85" height="85" filterUnits="userSpaceOnUse" color-interpolation-filters="sRGB">
<feFlood flood-opacity="0" result="BackgroundImageFix"/>
<feColorMatrix in="SourceAlpha" type="matrix" values="0 0 0 0 0 0 0 0 0 0 0 0 0 0 0 0 0 0 127 0" result="hardAlpha"/>
<feMorphology radius="1" operator="dilate" in="SourceAlpha" result="effect1_dropShadow_2_151"/>
<feOffset dx="1" dy="1"/>
<feGaussianBlur stdDeviation="2.5"/>
<feComposite in2="hardAlpha" operator="out"/>
<feColorMatrix type="matrix" values="0 0 0 0 1 0 0 0 0 1 0 0 0 0 1 0 0 0 0.4 0"/>
<feBlend mode="normal" in2="BackgroundImageFix" result="effect1_dropShadow_2_151"/>
<feBlend mode="normal" in="SourceGraphic" in2="effect1_dropShadow_2_151" result="shape"/>
</filter>
</defs>
</svg>
