<svg width="85" height="85" viewBox="0 0 85 85" fill="none" xmlns="http://www.w3.org/2000/svg">
<g filter="url(#filter0_d_2_166)">
<circle cx="41.5" cy="41.5" r="36.5" fill="black" fill-opacity="0.25" shape-rendering="crispEdges"/>
</g>
<path d="M26.0669 51H22.1294L29.2985 30.6364H33.8524L41.0314 51H37.0939L31.655 34.8125H31.4959L26.0669 51ZM26.1962 43.0156H36.9348V45.9787H26.1962V43.0156ZM60.187 37.5071H56.4682C56.3622 36.8973 56.1666 36.357 55.8816 35.8864C55.5965 35.4091 55.2419 35.0047 54.8177 34.6733C54.3934 34.3419 53.9095 34.0933 53.3659 33.9276C52.829 33.7552 52.249 33.669 51.6259 33.669C50.5189 33.669 49.5378 33.9474 48.6827 34.5043C47.8276 35.0544 47.1581 35.8632 46.6742 36.9304C46.1903 37.991 45.9483 39.2869 45.9483 40.8182C45.9483 42.3759 46.1903 43.6884 46.6742 44.7557C47.1647 45.8163 47.8342 46.6184 48.6827 47.1619C49.5378 47.6989 50.5156 47.9673 51.6159 47.9673C52.2258 47.9673 52.7959 47.8878 53.3262 47.7287C53.8631 47.563 54.3437 47.321 54.7679 47.0028C55.1988 46.6847 55.5601 46.2936 55.8517 45.8295C56.15 45.3655 56.3555 44.8352 56.4682 44.2386L60.187 44.2585C60.0478 45.2263 59.7462 46.1345 59.2821 46.983C58.8248 47.8314 58.2248 48.5805 57.4824 49.2301C56.74 49.8731 55.8716 50.3769 54.8773 50.7415C53.883 51.0994 52.7793 51.2784 51.5662 51.2784C49.7765 51.2784 48.1789 50.8641 46.7736 50.0355C45.3683 49.2069 44.2613 48.0104 43.4526 46.446C42.6439 44.8816 42.2395 43.0057 42.2395 40.8182C42.2395 38.6241 42.6472 36.7481 43.4625 35.1903C44.2779 33.6259 45.3882 32.4294 46.7935 31.6008C48.1988 30.7723 49.7897 30.358 51.5662 30.358C52.6998 30.358 53.7537 30.517 54.7282 30.8352C55.7026 31.1534 56.571 31.6207 57.3333 32.2372C58.0956 32.8471 58.722 33.5961 59.2125 34.4844C59.7097 35.366 60.0345 36.3736 60.187 37.5071Z" fill="#FF8E26"/>
<defs>
<filter id="filter0_d_2_166" x="0" y="0" width="85" height="85" filterUnits="userSpaceOnUse" color-interpolation-filters="sRGB">
<feFlood flood-opacity="0" result="BackgroundImageFix"/>
<feColorMatrix in="SourceAlpha" type="matrix" values="0 0 0 0 0 0 0 0 0 0 0 0 0 0 0 0 0 0 127 0" result="hardAlpha"/>
<feMorphology radius="1" operator="dilate" in="SourceAlpha" result="effect1_dropShadow_2_166"/>
<feOffset dx="1" dy="1"/>
<feGaussianBlur stdDeviation="2.5"/>
<feComposite in2="hardAlpha" operator="out"/>
<feColorMatrix type="matrix" values="0 0 0 0 1 0 0 0 0 1 0 0 0 0 1 0 0 0 0.4 0"/>
<feBlend mode="normal" in2="BackgroundImageFix" result="effect1_dropShadow_2_166"/>
<feBlend mode="normal" in="SourceGraphic" in2="effect1_dropShadow_2_166" result="shape"/>
</filter>
</defs>
</svg>
