<svg width="90" height="90" viewBox="0 0 90 90" fill="none" xmlns="http://www.w3.org/2000/svg">
<g filter="url(#filter0_dd_1_68)">
<circle cx="45.5" cy="45.5" r="36.5" fill="#EAEDF2"/>
</g>
<path d="M30.0669 56H26.1294L33.2985 35.6364H37.8524L45.0314 56H41.0939L35.655 39.8125H35.4959L30.0669 56ZM30.1962 48.0156H40.9348V50.9787H30.1962V48.0156ZM64.187 42.5071H60.4682C60.3622 41.8973 60.1666 41.357 59.8816 40.8864C59.5965 40.4091 59.2419 40.0047 58.8177 39.6733C58.3934 39.3419 57.9095 39.0933 57.3659 38.9276C56.829 38.7552 56.249 38.669 55.6259 38.669C54.5189 38.669 53.5378 38.9474 52.6827 39.5043C51.8276 40.0544 51.1581 40.8632 50.6742 41.9304C50.1903 42.991 49.9483 44.2869 49.9483 45.8182C49.9483 47.3759 50.1903 48.6884 50.6742 49.7557C51.1647 50.8163 51.8342 51.6184 52.6827 52.1619C53.5378 52.6989 54.5156 52.9673 55.6159 52.9673C56.2258 52.9673 56.7959 52.8878 57.3262 52.7287C57.8631 52.563 58.3437 52.321 58.7679 52.0028C59.1988 51.6847 59.5601 51.2936 59.8517 50.8295C60.15 50.3655 60.3555 49.8352 60.4682 49.2386L64.187 49.2585C64.0478 50.2263 63.7462 51.1345 63.2821 51.983C62.8248 52.8314 62.2248 53.5805 61.4824 54.2301C60.74 54.8731 59.8716 55.3769 58.8773 55.7415C57.883 56.0994 56.7793 56.2784 55.5662 56.2784C53.7765 56.2784 52.1789 55.8641 50.7736 55.0355C49.3683 54.2069 48.2613 53.0104 47.4526 51.446C46.6439 49.8816 46.2395 48.0057 46.2395 45.8182C46.2395 43.6241 46.6472 41.7481 47.4625 40.1903C48.2779 38.6259 49.3882 37.4294 50.7935 36.6008C52.1988 35.7723 53.7897 35.358 55.5662 35.358C56.6998 35.358 57.7537 35.517 58.7282 35.8352C59.7026 36.1534 60.571 36.6207 61.3333 37.2372C62.0956 37.8471 62.722 38.5961 63.2125 39.4844C63.7097 40.366 64.0345 41.3736 64.187 42.5071Z" fill="#FF8E26"/>
<defs>
<filter id="filter0_dd_1_68" x="0" y="0" width="90" height="90" filterUnits="userSpaceOnUse" color-interpolation-filters="sRGB">
<feFlood flood-opacity="0" result="BackgroundImageFix"/>
<feColorMatrix in="SourceAlpha" type="matrix" values="0 0 0 0 0 0 0 0 0 0 0 0 0 0 0 0 0 0 127 0" result="hardAlpha"/>
<feOffset dx="2" dy="2"/>
<feGaussianBlur stdDeviation="3"/>
<feComposite in2="hardAlpha" operator="out"/>
<feColorMatrix type="matrix" values="0 0 0 0 0.682353 0 0 0 0 0.682353 0 0 0 0 0.752941 0 0 0 1 0"/>
<feBlend mode="normal" in2="BackgroundImageFix" result="effect1_dropShadow_1_68"/>
<feColorMatrix in="SourceAlpha" type="matrix" values="0 0 0 0 0 0 0 0 0 0 0 0 0 0 0 0 0 0 127 0" result="hardAlpha"/>
<feOffset dx="-3" dy="-3"/>
<feGaussianBlur stdDeviation="3"/>
<feComposite in2="hardAlpha" operator="out"/>
<feColorMatrix type="matrix" values="0 0 0 0 1 0 0 0 0 1 0 0 0 0 1 0 0 0 1 0"/>
<feBlend mode="normal" in2="effect1_dropShadow_1_68" result="effect2_dropShadow_1_68"/>
<feBlend mode="normal" in="SourceGraphic" in2="effect2_dropShadow_1_68" result="shape"/>
</filter>
</defs>
</svg>
