<svg width="85" height="85" viewBox="0 0 85 85" fill="none" xmlns="http://www.w3.org/2000/svg">
<g filter="url(#filter0_d_2_174)">
<circle cx="41.5" cy="41.5" r="36.5" fill="black" fill-opacity="0.25" shape-rendering="crispEdges"/>
</g>
<path d="M42.3203 48.9091V47.7585C42.3203 46.8849 42.505 46.0824 42.8743 45.3509C43.2507 44.6122 43.794 44.0227 44.5043 43.5824C45.2216 43.1349 46.0952 42.9112 47.125 42.9112C48.169 42.9112 49.0462 43.1314 49.7564 43.5717C50.4737 44.0121 51.0135 44.6016 51.3757 45.3402C51.745 46.0717 51.9297 46.8778 51.9297 47.7585V48.9091C51.9297 49.7827 51.745 50.5888 51.3757 51.3274C51.0064 52.0589 50.4631 52.6449 49.7457 53.0852C49.0284 53.5327 48.1548 53.7564 47.125 53.7564C46.081 53.7564 45.2038 53.5327 44.4936 53.0852C43.7834 52.6449 43.2436 52.0589 42.8743 51.3274C42.505 50.5888 42.3203 49.7827 42.3203 48.9091ZM45.4205 47.7585V48.9091C45.4205 49.4134 45.5412 49.8892 45.7827 50.3366C46.0313 50.7841 46.4787 51.0078 47.125 51.0078C47.7713 51.0078 48.2116 50.7876 48.446 50.3473C48.6875 49.907 48.8082 49.4276 48.8082 48.9091V47.7585C48.8082 47.2401 48.6946 46.7571 48.4673 46.3097C48.2401 45.8622 47.7926 45.6385 47.125 45.6385C46.4858 45.6385 46.0419 45.8622 45.7933 46.3097C45.5447 46.7571 45.4205 47.2401 45.4205 47.7585ZM31.1236 36.4233V35.2727C31.1236 34.392 31.3118 33.5859 31.6882 32.8544C32.0646 32.1158 32.608 31.5263 33.3182 31.0859C34.0355 30.6456 34.902 30.4254 35.9176 30.4254C36.9688 30.4254 37.8494 30.6456 38.5597 31.0859C39.2699 31.5263 39.8097 32.1158 40.179 32.8544C40.5483 33.5859 40.733 34.392 40.733 35.2727V36.4233C40.733 37.304 40.5447 38.1101 40.1683 38.8416C39.799 39.5732 39.2557 40.1591 38.5384 40.5994C37.8281 41.0327 36.9545 41.2493 35.9176 41.2493C34.8807 41.2493 34.0036 41.0291 33.2862 40.5888C32.576 40.1413 32.0362 39.5554 31.6669 38.831C31.3047 38.0994 31.1236 37.2969 31.1236 36.4233ZM34.245 35.2727V36.4233C34.245 36.9418 34.3658 37.4212 34.6072 37.8615C34.8558 38.3018 35.2926 38.522 35.9176 38.522C36.571 38.522 37.0149 38.3018 37.2493 37.8615C37.4908 37.4212 37.6115 36.9418 37.6115 36.4233V35.2727C37.6115 34.7543 37.4979 34.2713 37.2706 33.8239C37.0433 33.3764 36.5923 33.1527 35.9176 33.1527C35.2855 33.1527 34.8487 33.38 34.6072 33.8345C34.3658 34.2891 34.245 34.7685 34.245 35.2727ZM32.5298 53L47.5298 31.1818H50.321L35.321 53H32.5298Z" fill="#FF8E26"/>
<defs>
<filter id="filter0_d_2_174" x="0" y="0" width="85" height="85" filterUnits="userSpaceOnUse" color-interpolation-filters="sRGB">
<feFlood flood-opacity="0" result="BackgroundImageFix"/>
<feColorMatrix in="SourceAlpha" type="matrix" values="0 0 0 0 0 0 0 0 0 0 0 0 0 0 0 0 0 0 127 0" result="hardAlpha"/>
<feMorphology radius="1" operator="dilate" in="SourceAlpha" result="effect1_dropShadow_2_174"/>
<feOffset dx="1" dy="1"/>
<feGaussianBlur stdDeviation="2.5"/>
<feComposite in2="hardAlpha" operator="out"/>
<feColorMatrix type="matrix" values="0 0 0 0 1 0 0 0 0 1 0 0 0 0 1 0 0 0 0.4 0"/>
<feBlend mode="normal" in2="BackgroundImageFix" result="effect1_dropShadow_2_174"/>
<feBlend mode="normal" in="SourceGraphic" in2="effect1_dropShadow_2_174" result="shape"/>
</filter>
</defs>
</svg>
