<svg width="85" height="85" viewBox="0 0 85 85" fill="none" xmlns="http://www.w3.org/2000/svg">
<g filter="url(#filter0_d_2_226)">
<circle cx="41.5" cy="41.5" r="36.5" fill="black" fill-opacity="0.25" shape-rendering="crispEdges"/>
</g>
<path opacity="0.9" d="M41.3011 31.358C42.2756 31.3646 43.2235 31.5369 44.1449 31.875C45.0729 32.2064 45.9081 32.75 46.6506 33.5057C47.393 34.2547 47.983 35.259 48.4205 36.5185C48.858 37.7779 49.0767 39.3357 49.0767 41.1918C49.0833 42.9418 48.8977 44.5062 48.5199 45.8849C48.1487 47.2571 47.6151 48.4171 46.919 49.3651C46.223 50.313 45.3845 51.0355 44.4034 51.5327C43.4223 52.0298 42.3187 52.2784 41.0923 52.2784C39.8063 52.2784 38.6662 52.0265 37.6719 51.5227C36.6842 51.0189 35.8854 50.3295 35.2756 49.4545C34.6657 48.5795 34.2912 47.5786 34.152 46.4517H37.7812C37.9669 47.2604 38.3447 47.9034 38.9148 48.3807C39.4915 48.8513 40.2173 49.0866 41.0923 49.0866C42.5043 49.0866 43.5914 48.4735 44.3537 47.2472C45.116 46.0208 45.4972 44.3172 45.4972 42.1364H45.358C45.0331 42.7197 44.6122 43.2235 44.0952 43.6477C43.5781 44.0653 42.9915 44.3868 42.3352 44.6122C41.6856 44.8376 40.9962 44.9503 40.267 44.9503C39.0739 44.9503 38 44.6652 37.0455 44.0952C36.0975 43.5251 35.3452 42.7429 34.7884 41.7486C34.2382 40.7543 33.9598 39.6174 33.9531 38.3381C33.9531 37.0123 34.258 35.8224 34.8679 34.7685C35.4844 33.7079 36.3428 32.8726 37.4432 32.2628C38.5436 31.6463 39.8295 31.3447 41.3011 31.358ZM41.3111 34.3409C40.5952 34.3409 39.9489 34.5166 39.3722 34.8679C38.8021 35.2126 38.3513 35.6832 38.0199 36.2798C37.6951 36.8698 37.5327 37.5294 37.5327 38.2585C37.5393 38.9811 37.7017 39.6373 38.0199 40.2273C38.3447 40.8172 38.7855 41.2846 39.3423 41.6293C39.9058 41.974 40.5488 42.1463 41.2713 42.1463C41.8082 42.1463 42.3087 42.0436 42.7727 41.8381C43.2367 41.6326 43.6411 41.3475 43.9858 40.983C44.3371 40.6117 44.6089 40.1908 44.8011 39.7202C45 39.2495 45.0961 38.7524 45.0895 38.2287C45.0895 37.5327 44.9238 36.8897 44.5923 36.2997C44.2675 35.7098 43.8201 35.2358 43.25 34.8778C42.6866 34.5199 42.0402 34.3409 41.3111 34.3409Z" fill="white"/>
<defs>
<filter id="filter0_d_2_226" x="0" y="0" width="85" height="85" filterUnits="userSpaceOnUse" color-interpolation-filters="sRGB">
<feFlood flood-opacity="0" result="BackgroundImageFix"/>
<feColorMatrix in="SourceAlpha" type="matrix" values="0 0 0 0 0 0 0 0 0 0 0 0 0 0 0 0 0 0 127 0" result="hardAlpha"/>
<feMorphology radius="1" operator="dilate" in="SourceAlpha" result="effect1_dropShadow_2_226"/>
<feOffset dx="1" dy="1"/>
<feGaussianBlur stdDeviation="2.5"/>
<feComposite in2="hardAlpha" operator="out"/>
<feColorMatrix type="matrix" values="0 0 0 0 1 0 0 0 0 1 0 0 0 0 1 0 0 0 0.4 0"/>
<feBlend mode="normal" in2="BackgroundImageFix" result="effect1_dropShadow_2_226"/>
<feBlend mode="normal" in="SourceGraphic" in2="effect1_dropShadow_2_226" result="shape"/>
</filter>
</defs>
</svg>
