<svg width="85" height="85" viewBox="0 0 85 85" fill="none" xmlns="http://www.w3.org/2000/svg">
<g filter="url(#filter0_d_2_126)">
<circle cx="40.5" cy="40.5" r="36.5" fill="black" fill-opacity="0.25" shape-rendering="crispEdges"/>
</g>
<path d="M40.6889 51.2784C39.7145 51.2718 38.7633 51.1027 37.8352 50.7713C36.9072 50.4332 36.072 49.8864 35.3295 49.1307C34.5871 48.3684 33.9972 47.3575 33.5597 46.098C33.1222 44.8319 32.9067 43.2642 32.9134 41.3949C32.9134 39.6515 33.099 38.0971 33.4702 36.7315C33.8414 35.366 34.375 34.2126 35.071 33.2713C35.767 32.3234 36.6056 31.6009 37.5866 31.1037C38.5743 30.6065 39.678 30.358 40.8977 30.358C42.1771 30.358 43.3106 30.6098 44.2983 31.1136C45.2926 31.6174 46.0947 32.3068 46.7045 33.1818C47.3144 34.0502 47.6922 35.0312 47.8381 36.125H44.2088C44.0232 35.3428 43.642 34.7197 43.0653 34.2557C42.4953 33.785 41.7727 33.5497 40.8977 33.5497C39.4858 33.5497 38.3987 34.1629 37.6364 35.3892C36.8807 36.6155 36.4995 38.2992 36.4929 40.4403H36.6321C36.9569 39.857 37.3778 39.3565 37.8949 38.9389C38.4119 38.5213 38.9953 38.1998 39.6449 37.9744C40.3011 37.7424 40.9938 37.6264 41.723 37.6264C42.9162 37.6264 43.9867 37.9115 44.9347 38.4815C45.8892 39.0516 46.6449 39.8371 47.2017 40.8381C47.7585 41.8324 48.0336 42.9725 48.027 44.2585C48.0336 45.5975 47.7287 46.8007 47.1122 47.8679C46.4957 48.9285 45.6373 49.7637 44.5369 50.3736C43.4366 50.9834 42.1539 51.285 40.6889 51.2784ZM40.669 48.2955C41.3916 48.2955 42.0379 48.1198 42.608 47.7685C43.178 47.4171 43.6288 46.9432 43.9602 46.3466C44.2917 45.75 44.4541 45.0805 44.4474 44.3381C44.4541 43.6089 44.295 42.9493 43.9702 42.3594C43.652 41.7694 43.2112 41.3021 42.6477 40.9574C42.0843 40.6127 41.4413 40.4403 40.7187 40.4403C40.1818 40.4403 39.6813 40.5431 39.2173 40.7486C38.7533 40.9541 38.349 41.2391 38.0043 41.6037C37.6596 41.9616 37.3878 42.3793 37.1889 42.8565C36.9967 43.3272 36.8973 43.831 36.8906 44.3679C36.8973 45.0772 37.063 45.7301 37.3878 46.3267C37.7126 46.9233 38.16 47.4006 38.7301 47.7585C39.3002 48.1165 39.9465 48.2955 40.669 48.2955Z" fill="white"/>
<defs>
<filter id="filter0_d_2_126" x="0" y="0" width="85" height="85" filterUnits="userSpaceOnUse" color-interpolation-filters="sRGB">
<feFlood flood-opacity="0" result="BackgroundImageFix"/>
<feColorMatrix in="SourceAlpha" type="matrix" values="0 0 0 0 0 0 0 0 0 0 0 0 0 0 0 0 0 0 127 0" result="hardAlpha"/>
<feOffset dx="2" dy="2"/>
<feGaussianBlur stdDeviation="3"/>
<feComposite in2="hardAlpha" operator="out"/>
<feColorMatrix type="matrix" values="0 0 0 0 1 0 0 0 0 1 0 0 0 0 1 0 0 0 0.4 0"/>
<feBlend mode="normal" in2="BackgroundImageFix" result="effect1_dropShadow_2_126"/>
<feBlend mode="normal" in="SourceGraphic" in2="effect1_dropShadow_2_126" result="shape"/>
</filter>
</defs>
</svg>
