<svg width="85" height="85" viewBox="0 0 85 85" fill="none" xmlns="http://www.w3.org/2000/svg">
<g filter="url(#filter0_d_2_120)">
<circle cx="41.5" cy="41.5" r="36.5" fill="black" fill-opacity="0.25" shape-rendering="crispEdges"/>
</g>
<path d="M41.5112 52.2784C40.033 52.2784 38.7205 52.0298 37.5737 51.5327C36.4335 51.0355 35.5386 50.3561 34.889 49.4943C34.246 48.6259 33.9279 47.6416 33.9345 46.5412C33.9279 45.6861 34.1135 44.9006 34.4913 44.1847C34.8691 43.4687 35.3796 42.8722 36.0225 42.3949C36.6722 41.911 37.3947 41.6027 38.1902 41.4702V41.331C37.1428 41.099 36.2943 40.5653 35.6447 39.7301C35.0017 38.8883 34.6835 37.9171 34.6902 36.8168C34.6835 35.7694 34.9752 34.8348 35.5652 34.0128C36.1551 33.1908 36.9638 32.5445 37.9913 32.0739C39.0188 31.5966 40.1921 31.358 41.5112 31.358C42.8171 31.358 43.9804 31.5966 45.0012 32.0739C46.0287 32.5445 46.8374 33.1908 47.4274 34.0128C48.024 34.8348 48.3223 35.7694 48.3223 36.8168C48.3223 37.9171 47.9941 38.8883 47.3379 39.7301C46.6883 40.5653 45.8497 41.099 44.8223 41.331V41.4702C45.6177 41.6027 46.3336 41.911 46.97 42.3949C47.613 42.8722 48.1234 43.4687 48.5012 44.1847C48.8857 44.9006 49.0779 45.6861 49.0779 46.5412C49.0779 47.6416 48.7531 48.6259 48.1035 49.4943C47.4539 50.3561 46.559 51.0355 45.4189 51.5327C44.2853 52.0298 42.9828 52.2784 41.5112 52.2784ZM41.5112 49.4347C42.2735 49.4347 42.9364 49.3054 43.4998 49.0469C44.0633 48.7817 44.5008 48.4105 44.8123 47.9332C45.1239 47.456 45.283 46.9058 45.2896 46.2827C45.283 45.633 45.1139 45.0597 44.7825 44.5625C44.4577 44.0587 44.0102 43.6643 43.4402 43.3793C42.8767 43.0942 42.2337 42.9517 41.5112 42.9517C40.782 42.9517 40.1324 43.0942 39.5623 43.3793C38.9922 43.6643 38.5415 44.0587 38.21 44.5625C37.8852 45.0597 37.7261 45.633 37.7328 46.2827C37.7261 46.9058 37.8786 47.456 38.1902 47.9332C38.5017 48.4039 38.9392 48.7718 39.5027 49.0369C40.0727 49.3021 40.7422 49.4347 41.5112 49.4347ZM41.5112 40.1577C42.1343 40.1577 42.6845 40.0317 43.1618 39.7798C43.6457 39.5279 44.0268 39.1766 44.3052 38.7259C44.5836 38.2751 44.7261 37.7547 44.7328 37.1648C44.7261 36.5814 44.5869 36.071 44.3152 35.6335C44.0434 35.1894 43.6655 34.848 43.1816 34.6094C42.6977 34.3641 42.1409 34.2415 41.5112 34.2415C40.8682 34.2415 40.3014 34.3641 39.8109 34.6094C39.327 34.848 38.9492 35.1894 38.6774 35.6335C38.4122 36.071 38.283 36.5814 38.2896 37.1648C38.283 37.7547 38.4155 38.2751 38.6873 38.7259C38.9657 39.17 39.3469 39.5213 39.8308 39.7798C40.3213 40.0317 40.8815 40.1577 41.5112 40.1577Z" fill="white"/>
<defs>
<filter id="filter0_d_2_120" x="0" y="0" width="85" height="85" filterUnits="userSpaceOnUse" color-interpolation-filters="sRGB">
<feFlood flood-opacity="0" result="BackgroundImageFix"/>
<feColorMatrix in="SourceAlpha" type="matrix" values="0 0 0 0 0 0 0 0 0 0 0 0 0 0 0 0 0 0 127 0" result="hardAlpha"/>
<feMorphology radius="1" operator="dilate" in="SourceAlpha" result="effect1_dropShadow_2_120"/>
<feOffset dx="1" dy="1"/>
<feGaussianBlur stdDeviation="2.5"/>
<feComposite in2="hardAlpha" operator="out"/>
<feColorMatrix type="matrix" values="0 0 0 0 1 0 0 0 0 1 0 0 0 0 1 0 0 0 0.4 0"/>
<feBlend mode="normal" in2="BackgroundImageFix" result="effect1_dropShadow_2_120"/>
<feBlend mode="normal" in="SourceGraphic" in2="effect1_dropShadow_2_120" result="shape"/>
</filter>
</defs>
</svg>
