<svg width="62" height="62" viewBox="0 0 62 62" fill="none" xmlns="http://www.w3.org/2000/svg">
<g filter="url(#filter0_dd_3_63)">
<path d="M6 11C6 8.23858 8.23858 6 11 6H51C53.7614 6 56 8.23858 56 11V51C56 53.7614 53.7614 56 51 56H32H11C8.23858 56 6 53.7614 6 51V11Z" fill="black" fill-opacity="0.25" shape-rendering="crispEdges"/>
</g>
<rect width="30" height="30" transform="translate(16 16)" fill="black" fill-opacity="0.25"/>
<path d="M31 36.625C27.8934 36.625 25.375 34.1066 25.375 31C25.375 27.8934 27.8934 25.375 31 25.375C34.1066 25.375 36.625 27.8934 36.625 31C36.625 34.1066 34.1066 36.625 31 36.625ZM31 38.5C35.1421 38.5 38.5 35.1421 38.5 31C38.5 26.8579 35.1421 23.5 31 23.5C26.8579 23.5 23.5 26.8579 23.5 31C23.5 35.1421 26.8579 38.5 31 38.5Z" fill="white"/>
<path d="M31 16C31.5178 16 31.9375 16.4197 31.9375 16.9375V20.6875C31.9375 21.2053 31.5178 21.625 31 21.625C30.4822 21.625 30.0625 21.2053 30.0625 20.6875V16.9375C30.0625 16.4197 30.4822 16 31 16Z" fill="white"/>
<path d="M31 40.375C31.5178 40.375 31.9375 40.7947 31.9375 41.3125V45.0625C31.9375 45.5803 31.5178 46 31 46C30.4822 46 30.0625 45.5803 30.0625 45.0625V41.3125C30.0625 40.7947 30.4822 40.375 31 40.375Z" fill="white"/>
<path d="M46 31C46 31.5178 45.5803 31.9375 45.0625 31.9375H41.3125C40.7947 31.9375 40.375 31.5178 40.375 31C40.375 30.4822 40.7947 30.0625 41.3125 30.0625H45.0625C45.5803 30.0625 46 30.4822 46 31Z" fill="white"/>
<path d="M21.625 31C21.625 31.5178 21.2053 31.9375 20.6875 31.9375H16.9375C16.4197 31.9375 16 31.5178 16 31C16 30.4822 16.4197 30.0625 16.9375 30.0625H20.6875C21.2053 30.0625 21.625 30.4822 21.625 31Z" fill="white"/>
<path d="M41.6066 20.3935C41.9727 20.7596 41.9727 21.3532 41.6066 21.7193L38.9549 24.3709C38.5888 24.737 37.9952 24.737 37.6291 24.3709C37.263 24.0048 37.263 23.4112 37.6291 23.0451L40.2808 20.3935C40.6469 20.0273 41.2405 20.0273 41.6066 20.3935Z" fill="white"/>
<path d="M24.3709 37.6292C24.737 37.9953 24.737 38.5889 24.3709 38.955L21.7192 41.6067C21.3531 41.9728 20.7595 41.9728 20.3934 41.6067C20.0273 41.2405 20.0273 40.647 20.3934 40.2808L23.045 37.6292C23.4112 37.2631 24.0048 37.2631 24.3709 37.6292Z" fill="white"/>
<path d="M41.6066 41.6067C41.2405 41.9728 40.6469 41.9728 40.2808 41.6067L37.6291 38.955C37.263 38.5889 37.263 37.9953 37.6291 37.6292C37.9952 37.2631 38.5888 37.2631 38.9549 37.6292L41.6066 40.2809C41.9727 40.647 41.9727 41.2406 41.6066 41.6067Z" fill="white"/>
<path d="M24.3709 24.371C24.0048 24.7371 23.4112 24.7371 23.045 24.371L20.3934 21.7193C20.0273 21.3532 20.0273 20.7596 20.3934 20.3935C20.7595 20.0274 21.3531 20.0274 21.7192 20.3935L24.3709 23.0451C24.737 23.4112 24.737 24.0048 24.3709 24.371Z" fill="white"/>
<defs>
<filter id="filter0_dd_3_63" x="0" y="0" width="62" height="62" filterUnits="userSpaceOnUse" color-interpolation-filters="sRGB">
<feFlood flood-opacity="0" result="BackgroundImageFix"/>
<feColorMatrix in="SourceAlpha" type="matrix" values="0 0 0 0 0 0 0 0 0 0 0 0 0 0 0 0 0 0 127 0" result="hardAlpha"/>
<feOffset dx="1" dy="1"/>
<feGaussianBlur stdDeviation="2.5"/>
<feComposite in2="hardAlpha" operator="out"/>
<feColorMatrix type="matrix" values="0 0 0 0 1 0 0 0 0 1 0 0 0 0 1 0 0 0 0.4 0"/>
<feBlend mode="normal" in2="BackgroundImageFix" result="effect1_dropShadow_3_63"/>
<feColorMatrix in="SourceAlpha" type="matrix" values="0 0 0 0 0 0 0 0 0 0 0 0 0 0 0 0 0 0 127 0" result="hardAlpha"/>
<feOffset dx="-1" dy="-1"/>
<feGaussianBlur stdDeviation="2.5"/>
<feComposite in2="hardAlpha" operator="out"/>
<feColorMatrix type="matrix" values="0 0 0 0 1 0 0 0 0 1 0 0 0 0 1 0 0 0 0.4 0"/>
<feBlend mode="normal" in2="effect1_dropShadow_3_63" result="effect2_dropShadow_3_63"/>
<feBlend mode="normal" in="SourceGraphic" in2="effect2_dropShadow_3_63" result="shape"/>
</filter>
</defs>
</svg>
